<svg width="16" height="16" viewBox="0 0 16 16" fill="none" xmlns="http://www.w3.org/2000/svg">
<path fill-rule="evenodd" clip-rule="evenodd" d="M0.5 8C0.5 12.1421 3.85786 15.5 8 15.5C12.1421 15.5 15.5 12.1421 15.5 8C15.5 3.85786 12.1421 0.5 8 0.5C3.85786 0.5 0.5 3.85786 0.5 8ZM11.5529 6.25679C11.8328 5.95145 11.8121 5.47703 11.5068 5.19713C11.2015 4.91724 10.727 4.93787 10.4471 5.24321L6.9019 9.11074L5.57617 7.51986C5.31099 7.20165 4.83807 7.15866 4.51986 7.42383C4.20165 7.68901 4.15866 8.16193 4.42383 8.48014L6.29883 10.7301C6.43737 10.8964 6.64096 10.9947 6.8573 10.9998C7.07364 11.0049 7.28164 10.9163 7.42787 10.7568L11.5529 6.25679Z" fill="#89C440"/>
</svg>
