<svg width="16" height="16" viewBox="0 0 16 16" fill="none" xmlns="http://www.w3.org/2000/svg">
<path d="M16 8C16 12.4183 12.4183 16 8 16C3.58172 16 0 12.4183 0 8C0 3.58172 3.58172 0 8 0C12.4183 0 16 3.58172 16 8Z" fill="#B20237"/>
<path d="M9.75637 4.68215C10.1342 4.30541 10.7458 4.30626 11.1226 4.68406V4.68406C11.4993 5.06185 11.4985 5.67352 11.1207 6.05026L5.04823 12.1058C4.67043 12.4825 4.05876 12.4817 3.68202 12.1039V12.1039C3.30528 11.7261 3.30613 11.1144 3.68393 10.7377L9.75637 4.68215Z" fill="white"/>
<path d="M4.12353 6.04932C3.74627 5.67205 3.74627 5.06037 4.12353 4.68311V4.68311C4.5008 4.30584 5.11247 4.30584 5.48974 4.68311L11.5537 10.7471C11.931 11.1244 11.931 11.736 11.5537 12.1133V12.1133C11.1765 12.4906 10.5648 12.4906 10.1875 12.1133L4.12353 6.04932Z" fill="white"/>
</svg>
