<svg width="20" height="20" viewBox="0 0 20 20" fill="none" xmlns="http://www.w3.org/2000/svg">
<path fill-rule="evenodd" clip-rule="evenodd" d="M18 10C18 14.4183 14.4183 18 10 18C5.58172 18 2 14.4183 2 10C2 5.58172 5.58172 2 10 2C14.4183 2 18 5.58172 18 10ZM16.3287 17.7429C14.6049 19.1536 12.4013 20 10 20C7.59873 20 5.39514 19.1536 3.67127 17.7429L1.70711 19.7071C1.31658 20.0976 0.683417 20.0976 0.292893 19.7071C-0.0976311 19.3166 -0.0976311 18.6834 0.292893 18.2929L2.25705 16.3287C0.846365 14.6049 2.98023e-08 12.4013 2.98023e-08 10C2.98023e-08 4.47715 4.47715 0 10 0C15.5228 0 20 4.47715 20 10C20 12.4013 19.1536 14.6049 17.7429 16.3287L19.7071 18.2929C20.0976 18.6834 20.0976 19.3166 19.7071 19.7071C19.3166 20.0976 18.6834 20.0976 18.2929 19.7071L16.3287 17.7429ZM13 10C13 11.6569 11.6569 13 10 13C8.34315 13 7 11.6569 7 10C7 8.34315 8.34315 7 10 7C11.6569 7 13 8.34315 13 10ZM15 10C15 12.7614 12.7614 15 10 15C7.23858 15 5 12.7614 5 10C5 7.23858 7.23858 5 10 5C12.7614 5 15 7.23858 15 10Z" fill="white"/>
</svg>
