<svg width="20" height="20" viewBox="0 0 20 20" fill="none" xmlns="http://www.w3.org/2000/svg">
<path fill-rule="evenodd" clip-rule="evenodd" d="M0 2.5C0 1.11929 1.11929 0 2.5 0H5C5.55228 0 6 0.447715 6 1C6 1.55228 5.55228 2 5 2H2.5C2.22386 2 2 2.22386 2 2.5V5C2 5.55228 1.55228 6 1 6C0.447715 6 0 5.55228 0 5V2.5ZM17.5 0C18.8807 0 20 1.11929 20 2.5V5C20 5.55228 19.5523 6 19 6C18.4477 6 18 5.55228 18 5V2.5C18 2.22386 17.7761 2 17.5 2H15C14.4477 2 14 1.55228 14 1C14 0.447715 14.4477 0 15 0H17.5ZM0 17.5C0 18.8807 1.11929 20 2.5 20H5C5.55228 20 6 19.5523 6 19C6 18.4477 5.55228 18 5 18H2.5C2.22386 18 2 17.7761 2 17.5V15C2 14.4477 1.55228 14 1 14C0.447715 14 0 14.4477 0 15V17.5ZM17.5 20C18.8807 20 20 18.8807 20 17.5V15C20 14.4477 19.5523 14 19 14C18.4477 14 18 14.4477 18 15V17.5C18 17.7761 17.7761 18 17.5 18H15C14.4477 18 14 18.4477 14 19C14 19.5523 14.4477 20 15 20H17.5ZM4.20665 9.95302C4.4376 9.62696 4.79455 9.18724 5.28936 8.74741C6.27057 7.87522 7.79279 7 10 7C12.2072 7 13.7294 7.87522 14.7106 8.74741C15.2054 9.18724 15.5624 9.62696 15.7934 9.95302L15.8263 10L15.7934 10.047C15.5624 10.373 15.2054 10.8128 14.7106 11.2526C13.7294 12.1248 12.2072 13 10 13C7.79279 13 6.27057 12.1248 5.28936 11.2526C4.79455 10.8128 4.4376 10.373 4.20665 10.047L4.17369 10L4.20665 9.95302ZM17 10C17.8944 10.4472 17.8942 10.4477 17.894 10.4481L17.8935 10.4491L17.8923 10.4515L17.8894 10.4572L17.8813 10.4729C17.8748 10.4854 17.8663 10.5015 17.8556 10.5212C17.8343 10.5606 17.8045 10.614 17.7658 10.6796C17.6887 10.8105 17.5759 10.9905 17.4254 11.203C17.1251 11.627 16.6696 12.1872 16.0394 12.7474C14.7706 13.8752 12.7928 15 10 15C7.20721 15 5.22943 13.8752 3.96064 12.7474C3.33045 12.1872 2.8749 11.627 2.5746 11.203C2.42407 10.9905 2.31135 10.8105 2.23416 10.6796C2.19554 10.614 2.16571 10.5606 2.14439 10.5212C2.13373 10.5015 2.12519 10.4854 2.11873 10.4729L2.1106 10.4572L2.1077 10.4515L2.10654 10.4491L2.10603 10.4481C2.1058 10.4477 2.10557 10.4472 3 10C2.10557 9.55279 2.1058 9.55233 2.10603 9.55187L2.10654 9.55085L2.1077 9.54855L2.1106 9.54283L2.11873 9.52706C2.12519 9.51465 2.13373 9.49848 2.14439 9.4788C2.16571 9.43944 2.19554 9.38598 2.23416 9.32043C2.31135 9.18946 2.42407 9.0095 2.5746 8.79698C2.8749 8.37304 3.33045 7.81276 3.96064 7.25259C5.22943 6.12478 7.20721 5 10 5C12.7928 5 14.7706 6.12478 16.0394 7.25259C16.6696 7.81276 17.1251 8.37304 17.4254 8.79698C17.5759 9.0095 17.6887 9.18946 17.7658 9.32043C17.8045 9.38598 17.8343 9.43944 17.8556 9.4788C17.8663 9.49848 17.8748 9.51465 17.8813 9.52706L17.8894 9.54283L17.8923 9.54855L17.8935 9.55085L17.894 9.55187C17.8942 9.55233 17.8944 9.55279 17 10ZM3 10L2.10557 10.4472C1.96481 10.1657 1.96481 9.83431 2.10557 9.55279L3 10ZM17.8944 10.4472L17 10L17.8944 9.55279C18.0352 9.83431 18.0352 10.1657 17.8944 10.4472ZM3.89233 10.4514C3.8922 10.4516 3.89222 10.4516 3.89241 10.4512L3.89233 10.4514ZM10 8C8.89543 8 8 8.89543 8 10C8 11.1046 8.89543 12 10 12C11.1046 12 12 11.1046 12 10C12 8.89543 11.1046 8 10 8Z" fill="white"/>
</svg>
