<svg width="20" height="20" viewBox="0 0 20 20" fill="none" xmlns="http://www.w3.org/2000/svg">
<path fill-rule="evenodd" clip-rule="evenodd" d="M3.80952 2.49958C3.80952 2.2238 4.02237 2 4.28571 2H13.6541C13.4484 2.45463 13.3333 2.9632 13.3333 3.5V5H15.2381L13.3333 5V11V11.7778V15.5885C13.3333 16.9204 12.3051 18 11.0367 18C9.76832 18 8.74008 16.9204 8.74008 15.5885V14.0495C8.74008 13.4699 8.29257 13 7.74056 13H3.80952V10.2286V2.49958ZM15.2381 11.7778V15.5885C15.2381 18.0249 13.3571 20 11.0367 20C11.0085 20 10.9804 19.9997 10.9524 19.9991V20H5.71429C2.59677 20 0 17.3488 0 14.0495C0 13.4699 0.447517 13 0.999529 13H1.90476V10.2286V2.49958C1.90476 1.1185 2.9711 0 4.28571 0H16.6667C18.5076 0 20 1.567 20 3.5V5.9505C20 6.53012 19.5525 7 19.0005 7H15.2381V11V11.7778ZM15.2381 5V3.5C15.2381 2.67157 15.8777 2 16.6667 2C17.4556 2 18.0952 2.67157 18.0952 3.5V5H15.2381ZM6.83532 15.5885C6.83532 16.4785 7.08631 17.3069 7.51801 18H5.71429C3.9394 18 2.43201 16.7155 2.01755 15H2.85714H6.83532V15.5885ZM5.71429 8C5.1883 8 4.7619 8.44771 4.7619 9C4.7619 9.55229 5.1883 10 5.71429 10H11.4286C11.9546 10 12.381 9.55229 12.381 9C12.381 8.44771 11.9546 8 11.4286 8H5.71429ZM4.7619 5C4.7619 4.44772 5.1883 4 5.71429 4H11.4286C11.9546 4 12.381 4.44772 12.381 5C12.381 5.55228 11.9546 6 11.4286 6H5.71429C5.1883 6 4.7619 5.55228 4.7619 5Z" fill="white"/>
</svg>
