<svg width="20" height="20" viewBox="0 0 20 20" fill="none" xmlns="http://www.w3.org/2000/svg">
<path fill-rule="evenodd" clip-rule="evenodd" d="M2.5 20C1.11929 20 -4.89256e-08 18.8807 -1.09278e-07 17.5L-2.18557e-07 15C-2.42698e-07 14.4477 0.447715 14 1 14C1.55228 14 2 14.4477 2 15L2 17.5C2 17.7761 2.22386 18 2.5 18L5 18C5.55228 18 6 18.4477 6 19C6 19.5523 5.55228 20 5 20L2.5 20ZM2.5 -1.09278e-07C1.11929 -4.89256e-08 -8.25302e-07 1.11929 -7.64949e-07 2.5L-6.55671e-07 5C-6.3153e-07 5.55228 0.447715 6 0.999999 6C1.55228 6 2 5.55228 2 5L2 2.5C2 2.22386 2.22386 2 2.5 2L5 2C5.55228 2 6 1.55228 6 1C6 0.447715 5.55228 -2.42698e-07 5 -2.18557e-07L2.5 -1.09278e-07ZM20 17.5C20 18.8807 18.8807 20 17.5 20L15 20C14.4477 20 14 19.5523 14 19C14 18.4477 14.4477 18 15 18L17.5 18C17.7761 18 18 17.7761 18 17.5L18 15C18 14.4477 18.4477 14 19 14C19.5523 14 20 14.4477 20 15L20 17.5ZM17.5 -7.64949e-07C18.8807 -8.25302e-07 20 1.11929 20 2.5L20 5C20 5.55228 19.5523 6 19 6C18.4477 6 18 5.55228 18 5L18 2.5C18 2.22386 17.7761 2 17.5 2L15 2C14.4477 2 14 1.55228 14 0.999999C14 0.447715 14.4477 -6.3153e-07 15 -6.55671e-07L17.5 -7.64949e-07ZM9 19C9 19.5523 9.44771 20 10 20C10.5523 20 11 19.5523 11 19L11 1C11 0.447715 10.5523 -4.61255e-07 10 -4.37114e-07C9.44771 -4.12973e-07 9 0.447715 9 1L9 19Z" fill="white"/>
</svg>
